<?xml version="1.0" encoding="utf-8"?>
<!-- Generator: Adobe Illustrator 18.0.0, SVG Export Plug-In . SVG Version: 6.00 Build 0)  -->
<!DOCTYPE svg PUBLIC "-//W3C//DTD SVG 1.1//EN" "http://www.w3.org/Graphics/SVG/1.1/DTD/svg11.dtd">
<svg version="1.1" id="Layer_1" xmlns="http://www.w3.org/2000/svg" xmlns:xlink="http://www.w3.org/1999/xlink" x="0px" y="0px"
	 viewBox="0 0 250 359" enable-background="new 0 0 250 359" xml:space="preserve">
<polyline fill="#FFFFFF" points="7.9,0 25,0 25,18.9 44.3,18.9 44.3,0 61.3,0 61.3,54.3 44.3,54.3 44.3,32.5 25,32.5 25,54.3 
	7.9,54.3 7.9,0 "/>
<polyline fill="#FFFFFF" points="68.2,0 120.8,0 120.8,12.8 103,12.8 103,54.3 86,54.3 86,12.8 68.2,12.8 68.2,0 "/>
<polyline fill="#FFFFFF" points="127.7,0 150.2,0 158.7,33.2 167.2,0 189.6,0 189.6,54.3 175.7,54.3 175.7,13.1 165.2,54.3 
	152.3,54.3 141.7,13.1 141.7,54.3 127.7,54.3 127.7,0 "/>
<polyline fill="#FFFFFF" points="200.4,0 217.4,0 217.4,40.8 244.5,40.8 244.5,54.3 200.4,54.3 200.4,0 "/>
<polyline fill="#FFFFFF" points="125.1,230.2 125,230.2 13.5,230.2 1.2,95.9 0,82.8 125,82.8 125.1,82.8 250,82.8 248.8,95.9 
	246.5,120.6 245.5,131.5 245.4,131.5 125.1,131.5 125,131.5 54.5,131.5 59.1,181.4 125,181.4 125.1,181.4 227.5,181.4 241,181.4 
	239.8,194.5 228,322.8 227.3,331.1 125.2,358.7 125.2,358.7 124.9,358.8 22.7,331.1 15.7,254.5 38.8,254.5 65.8,254.5 69.3,293.4 
	124.9,308.1 125,308 125,308 180.6,293.4 186.4,230.2 125.1,230.2 "/>
</svg>
