<?xml version="1.0" encoding="utf-8"?>
<!-- Generator: Adobe Illustrator 18.0.0, SVG Export Plug-In . SVG Version: 6.00 Build 0)  -->
<!DOCTYPE svg PUBLIC "-//W3C//DTD SVG 1.1//EN" "http://www.w3.org/Graphics/SVG/1.1/DTD/svg11.dtd">
<svg version="1.1" id="Layer_1" xmlns="http://www.w3.org/2000/svg" xmlns:xlink="http://www.w3.org/1999/xlink" x="0px" y="0px"
	 viewBox="1.8 2.4 280.9 220" enable-background="new 1.8 2.4 280.9 220" xml:space="preserve">
<g>
	<path fill="#5DA3C2" d="M180.1,83.1c-0.1,0.3-0.2,0.8-0.2,1.1l-2.6,12.3l2.8-13L180.1,83.1"/>
	<polyline fill="#5DA3C2" points="104.4,93.3 102.9,98.5 104.4,93.3 104.4,93.3 	"/>
	<path fill="#FFFFFF" d="M17.5,76.2l113.4,118.1L78.1,78.2L17.5,76.2z M92.6,78.2l50.5,114.9l47.5-116.9L92.6,78.2L92.6,78.2z
		 M259.2,76.2h-53.9l-49.7,118.1L259.2,76.2z M98.9,64.9l87.7-2l-42.3-45.3L98.9,64.9z M219.2,11.5l-63,2l42.2,45.2L219.2,11.5z
		 M61.1,11.5l24.5,50.8l46.7-48.8L61.1,11.5z M259.4,62.9l-29-43.6l-19.2,43.6H259.4z M21.7,62.9l50.5,2L50.5,20.3L21.7,62.9z
		 M50.9,5.9h184.6l45.7,68.5l-139,148.5L3.3,76.3L50.9,5.9z"/>
	<path fill="none" stroke="#FFFFFF" stroke-width="3" stroke-linejoin="round" stroke-miterlimit="10" d="M17.5,76.2l113.4,118.1
		L78.1,78.2L17.5,76.2z M92.6,78.2l50.5,114.9l47.5-116.9L92.6,78.2L92.6,78.2z M259.2,76.2h-53.9l-49.7,118.1L259.2,76.2z
		 M98.9,64.9l87.7-2l-42.3-45.3L98.9,64.9z M219.2,11.5l-63,2l42.2,45.2L219.2,11.5z M61.1,11.5l24.5,50.8l46.7-48.8L61.1,11.5z
		 M259.4,62.9l-29-43.6l-19.2,43.6H259.4z M21.7,62.9l50.5,2L50.5,20.3L21.7,62.9z M50.9,5.9h184.6l45.7,68.5l-139,148.5L3.3,76.3
		L50.9,5.9z"/>
</g>
</svg>
